<svg xmlns="http://www.w3.org/2000/svg" xmlns:xlink="http://www.w3.org/1999/xlink" width="500" zoomAndPan="magnify" viewBox="0 0 375 374.999991" height="500" preserveAspectRatio="xMidYMid meet" version="1.2"><defs/><g id="064969038c"><rect x="0" width="375" y="0" height="374.999991" style="fill:#ffffff;fill-opacity:1;stroke:none;"/><rect x="0" width="375" y="0" height="374.999991" style="fill:#0a0a0a;fill-opacity:1;stroke:none;"/><g style="fill:#6900ff;fill-opacity:1;"><g transform="translate(32.548508, 271.423574)"><path style="stroke:none" d="M 88.125 -180.828125 L 125.90625 -180.828125 L 125.90625 -54.75 C 125.90625 -43.09375 123.300781 -32.976562 118.09375 -24.40625 C 112.882812 -15.84375 105.660156 -9.222656 96.421875 -4.546875 C 87.179688 0.128906 76.4375 2.46875 64.1875 2.46875 C 53.300781 2.46875 43.425781 0.523438 34.5625 -3.359375 C 25.707031 -7.242188 18.6875 -13.128906 13.5 -21.015625 C 8.320312 -28.898438 5.765625 -38.847656 5.828125 -50.859375 L 43.890625 -50.859375 C 44.003906 -43.679688 46.078125 -38.101562 50.109375 -34.125 C 54.140625 -30.15625 59.484375 -28.171875 66.140625 -28.171875 C 80.671875 -28.171875 88 -37.03125 88.125 -54.75 Z M 88.125 -180.828125 "/></g></g><g style="fill:#6900ff;fill-opacity:1;"><g transform="translate(174.261964, 271.423574)"><path style="stroke:none" d="M 15.71875 0 L 15.71875 -180.828125 L 87.0625 -180.828125 C 107.601562 -180.828125 123.539062 -175.46875 134.875 -164.75 C 146.207031 -154.039062 151.875 -139.710938 151.875 -121.765625 C 151.875 -109.398438 149.117188 -98.832031 143.609375 -90.0625 C 138.109375 -81.289062 130.207031 -74.695312 119.90625 -70.28125 L 158.3125 0 L 116.109375 0 L 81.84375 -64.109375 L 53.953125 -64.109375 L 53.953125 0 Z M 53.953125 -94.828125 L 79.90625 -94.828125 C 101.625 -94.828125 112.484375 -103.804688 112.484375 -121.765625 C 112.484375 -140.304688 101.566406 -149.578125 79.734375 -149.578125 L 53.953125 -149.578125 Z M 53.953125 -94.828125 "/></g></g></g></svg>